<svg width="889" height="174" viewBox="0 0 889 174" fill="none" xmlns="http://www.w3.org/2000/svg">
<path d="M206.525 104.783H180.999V81.1483H206.525V104.783Z" fill="#0D4B4D"/>
<path d="M172.396 24.739H179.013V51.0528H169.402C156.324 51.0528 150.809 57.3555 150.809 73.2698V104.783H123.707V25.9996H150.021V42.229C153.172 30.8842 159.633 24.739 172.396 24.739Z" fill="#0D4B4D"/>
<path d="M61.8705 0.000934792C95.9051 0.000934792 111.504 24.8966 111.504 52.1558C111.504 79.415 95.9051 104.783 61.8705 104.783H8.92779V0.000934792H61.8705ZM36.6597 82.8815H55.5678C74.6334 82.8815 82.5118 72.3244 82.5118 52.1558C82.5118 31.672 74.4759 21.9028 55.5678 21.9028H36.6597V82.8815Z" fill="#0D4B4D"/>
<path d="M779.963 79.4141H804.544C805.174 85.8743 810.531 91.0741 820.615 91.0741C829.439 91.0741 832.906 88.2379 832.906 83.6684C832.906 79.7292 831.488 76.4203 822.349 75.3173L805.647 73.4265C790.362 71.6933 782.169 63.4998 782.169 49.7914C782.169 31.0408 798.241 23.4776 819.355 23.4776C841.099 23.4776 856.226 30.8833 857.801 49.3187H833.221C832.433 43.1735 828.179 39.5495 819.512 39.5495C810.374 39.5495 806.907 42.8584 806.907 47.2703C806.907 50.5792 808.798 53.573 816.204 54.3608L832.433 55.9365C851.026 57.8273 858.747 65.3906 858.747 80.517C858.747 95.486 849.45 107.304 820.143 107.304C791.308 107.304 780.593 93.9103 779.963 79.4141Z" fill="#0D4B4D"/>
<path d="M715.7 106.831C699.943 106.831 689.544 97.8495 689.544 83.9835C689.544 71.3781 694.744 63.0271 716.488 59.403L734.293 56.2516C741.541 54.9911 743.432 53.1003 743.432 49.0035C743.432 44.2765 740.596 41.4403 731.614 41.4403C722.16 41.4403 717.591 45.2219 717.433 52.1549H691.119C691.907 35.4527 706.404 23.4776 731.299 23.4776C756.195 23.4776 768.485 33.7195 768.485 51.6822V83.0381C768.485 91.3892 768.958 98.3222 769.903 104.782H746.583C745.795 100.213 745.323 94.8557 745.323 88.3954C741.383 99.8979 731.614 106.831 715.7 106.831ZM725.942 89.1833C736.184 89.1833 743.432 81.9352 743.432 67.7541V64.7603C739.65 67.5965 736.026 68.5419 731.142 69.8025L726.572 70.9054C719.009 72.7962 716.173 75.4749 716.173 80.8322C716.173 86.347 720.427 89.1833 725.942 89.1833Z" fill="#0D4B4D"/>
<path d="M678.988 104.782H664.649C640.542 104.782 632.978 94.0678 632.978 73.7416V46.3249H619.112V33.7194L635.184 26.6289L646.372 6.93297H660.08V25.9986H681.509V46.3249H660.08V83.3532H678.988V104.782Z" fill="#0D4B4D"/>
<path d="M572.845 89.1833C580.881 89.1833 585.766 85.7168 587.972 80.9898H614.286C611.607 94.5406 600.893 107.304 572.215 107.304C540.071 107.304 528.727 86.8198 528.727 65.233C528.727 42.3857 541.962 23.4776 572.215 23.4776C604.359 23.4776 614.601 43.8038 614.601 65.7057C614.601 68.2268 614.443 70.5903 614.128 72.3235H555.04C556.616 84.9289 562.761 89.1833 572.845 89.1833ZM572.53 41.2827C562.761 41.2827 557.089 45.2219 555.355 56.5668H588.917C587.972 46.64 583.087 41.2827 572.53 41.2827Z" fill="#0D4B4D"/>
<path d="M433.017 65.3906C433.017 44.1189 444.992 23.4776 477.608 23.4776C506.128 23.4776 519.994 39.5495 520.624 59.2454H493.995C493.207 49.9489 488.48 44.5917 477.923 44.5917C466.578 44.5917 460.118 49.6338 460.118 65.3906C460.118 81.1473 466.263 86.1895 477.451 86.1895C488.638 86.1895 493.365 80.0443 494.31 71.3781H520.939C520.309 90.1287 507.231 107.304 477.923 107.304C445.307 107.304 433.017 86.6622 433.017 65.3906Z" fill="#0D4B4D"/>
<path d="M382.964 89.1833C391 89.1833 395.885 85.7168 398.091 80.9898H424.404C421.726 94.5406 411.011 107.304 382.334 107.304C350.19 107.304 338.845 86.8198 338.845 65.233C338.845 42.3857 352.081 23.4776 382.334 23.4776C414.478 23.4776 424.72 43.8038 424.72 65.7057C424.72 68.2268 424.562 70.5903 424.247 72.3235H365.159C366.735 84.9289 372.88 89.1833 382.964 89.1833ZM382.649 41.2827C372.88 41.2827 367.207 45.2219 365.474 56.5668H399.036C398.091 46.64 393.206 41.2827 382.649 41.2827Z" fill="#0D4B4D"/>
<path d="M327.194 80.0443V85.8743C327.194 94.383 328.139 98.7948 329.242 104.782H301.195C299.935 100.528 299.305 94.5405 299.305 85.8743V81.62C299.305 71.5357 292.844 66.8086 283.863 66.8086H264.797V104.782H236.75V1.35534e-06H294.735C318.37 1.35534e-06 329.873 12.1327 329.873 28.9924C329.873 43.9613 320.261 54.0457 307.183 56.7243C318.055 59.0878 327.194 64.6027 327.194 80.0443ZM264.797 46.9551H287.329C296.941 46.9551 300.88 42.5432 300.88 33.5619C300.88 25.3684 296.783 21.2716 287.487 21.2716H264.797V46.9551Z" fill="#0D4B4D"/>
<path d="M221.693 92.9971C223.671 92.8868 225.469 94.1424 226.046 96.0372L238.395 136.569L240.124 133.783L240.277 133.552C241.081 132.426 242.382 131.75 243.776 131.75H884.299C886.673 131.75 888.598 133.675 888.598 136.05C888.598 138.424 886.673 140.349 884.299 140.349H246.169L240.7 149.163C239.81 150.597 238.164 151.379 236.49 151.16C234.817 150.942 233.426 149.764 232.935 148.149L222.94 115.351L212.7 170.306C212.33 172.292 210.625 173.752 208.605 173.815C206.586 173.877 204.796 172.524 204.304 170.565L196.72 140.349H4.29883C1.9245 140.349 0.000146382 138.424 0 136.05C0 133.675 1.92441 131.75 4.29883 131.75H200.073L200.257 131.754C202.15 131.834 203.778 133.151 204.243 135.003L207.852 149.383L217.707 96.502L217.744 96.3214C218.172 94.4661 219.778 93.1042 221.693 92.9971Z" fill="#00CD7D"/>
</svg>
