<svg xmlns="http://www.w3.org/2000/svg" width="64" height="65" viewBox="0 0 64 65" fill="none">
  <g filter="url(#filter0_d_3438_40)">
    <path d="M19.4827 19.4311C19.776 16.3517 22.3624 14 25.4557 14H41.4991C44.6113 14 47.2069 16.3797 47.4765 19.4802L48 25.5L47.3892 37.4097C47.1711 41.6632 43.6588 45 39.3997 45H27.6193C23.3525 45 19.8367 41.6515 19.6288 37.3898L19.0281 25.0751C19.0094 24.6922 19.0182 24.3084 19.0546 23.9268L19.4827 19.4311Z" fill="white"/>
  </g>
  <g filter="url(#filter1_d_3438_40)">
    <path d="M16 41C16 37.6863 18.6863 35 22 35C25.3137 35 28 37.6863 28 41C28 44.3137 25.3137 47 22 47C18.6863 47 16 44.3137 16 41Z" fill="white"/>
  </g>
  <path d="M47.5603 28.543V35.6245C47.5603 42.7061 44.7371 45.5452 37.6398 45.5452H29.1388C28.224 45.5452 27.3881 45.4978 26.6152 45.3874" stroke="#B0E5CC" stroke-width="2.36578" stroke-linecap="round" stroke-linejoin="round"/>
  <path d="M19.2161 35.325V28.543" stroke="#B0E5CC" stroke-width="2.36578" stroke-linecap="round" stroke-linejoin="round"/>
  <path d="M33.3961 29.7718C36.2823 29.7718 38.4115 27.422 38.1276 24.5357L37.0709 14H29.7055L28.6488 24.5357C28.3649 27.422 30.5098 29.7718 33.3961 29.7718Z" stroke="#25A472" stroke-width="2.36578" stroke-linecap="round" stroke-linejoin="round"/>
  <path d="M43.333 29.7718C46.519 29.7718 48.8532 27.1853 48.5378 24.0151L48.0961 19.6778C47.5284 15.5772 45.9512 14 41.819 14H37.0085L38.1126 25.0561C38.3965 27.6584 40.7307 29.7718 43.333 29.7718Z" stroke="#25A472" stroke-width="2.36578" stroke-linecap="round" stroke-linejoin="round"/>
  <path d="M23.3652 29.7718C25.9675 29.7718 28.3175 27.6584 28.5699 25.0561L28.9169 21.5706L29.6739 14H24.8635C20.7313 14 19.1542 15.5772 18.5864 19.6778L18.1447 24.0151C17.8293 27.1853 20.1793 29.7718 23.3652 29.7718Z" stroke="#25A472" stroke-width="2.36578" stroke-linecap="round" stroke-linejoin="round"/>
  <path d="M28.6175 40.8126C28.6175 41.9955 28.2862 43.1155 27.7027 44.0618C27.403 44.5665 27.0403 45.0237 26.6144 45.3865C26.5671 45.4496 26.5198 45.4969 26.4567 45.5442C25.3527 46.5378 23.9017 47.1214 22.3087 47.1214C20.3846 47.1214 18.6654 46.2539 17.5298 44.8975C17.4983 44.8502 17.451 44.8187 17.4195 44.7714C17.2302 44.5506 17.0567 44.3141 16.9148 44.0618C16.3312 43.1155 16 41.9955 16 40.8126C16 38.8254 16.9148 37.0432 18.3658 35.8918C18.6339 35.671 18.9178 35.4818 19.2174 35.324C20.1322 34.8036 21.1889 34.5039 22.3087 34.5039C23.8859 34.5039 25.3053 35.0717 26.4094 36.0338C26.5986 36.1757 26.7721 36.3492 26.9299 36.5227C27.9708 37.6583 28.6175 39.1566 28.6175 40.8126Z" stroke="#25A472" stroke-width="2.36578" stroke-miterlimit="10" stroke-linecap="round" stroke-linejoin="round"/>
  <path d="M24.6583 40.7812H19.9584" stroke="#B0E5CC" stroke-width="2.36578" stroke-miterlimit="10" stroke-linecap="round" stroke-linejoin="round"/>
  <path d="M22.3088 38.4727V43.1884" stroke="#B0E5CC" stroke-width="2.36578" stroke-miterlimit="10" stroke-linecap="round" stroke-linejoin="round"/>
  <defs>
    <filter id="filter0_d_3438_40" x="3.01855" y="0" width="60.9814" height="63" filterUnits="userSpaceOnUse" color-interpolation-filters="sRGB">
      <feFlood flood-opacity="0" result="BackgroundImageFix"/>
      <feColorMatrix in="SourceAlpha" type="matrix" values="0 0 0 0 0 0 0 0 0 0 0 0 0 0 0 0 0 0 127 0" result="hardAlpha"/>
      <feOffset dy="2"/>
      <feGaussianBlur stdDeviation="8"/>
      <feComposite in2="hardAlpha" operator="out"/>
      <feColorMatrix type="matrix" values="0 0 0 0 0 0 0 0 0 0 0 0 0 0 0 0 0 0 0.05 0"/>
      <feBlend mode="normal" in2="BackgroundImageFix" result="effect1_dropShadow_3438_40"/>
      <feBlend mode="normal" in="SourceGraphic" in2="effect1_dropShadow_3438_40" result="shape"/>
    </filter>
    <filter id="filter1_d_3438_40" x="0" y="21" width="44" height="44" filterUnits="userSpaceOnUse" color-interpolation-filters="sRGB">
      <feFlood flood-opacity="0" result="BackgroundImageFix"/>
      <feColorMatrix in="SourceAlpha" type="matrix" values="0 0 0 0 0 0 0 0 0 0 0 0 0 0 0 0 0 0 127 0" result="hardAlpha"/>
      <feOffset dy="2"/>
      <feGaussianBlur stdDeviation="8"/>
      <feComposite in2="hardAlpha" operator="out"/>
      <feColorMatrix type="matrix" values="0 0 0 0 0 0 0 0 0 0 0 0 0 0 0 0 0 0 0.05 0"/>
      <feBlend mode="normal" in2="BackgroundImageFix" result="effect1_dropShadow_3438_40"/>
      <feBlend mode="normal" in="SourceGraphic" in2="effect1_dropShadow_3438_40" result="shape"/>
    </filter>
  </defs>
</svg>