<svg width="262" height="460" viewBox="0 0 262 460" fill="none" xmlns="http://www.w3.org/2000/svg">
<path d="M259.491 128.591V54.5194C259.491 36.1418 244.593 21.2437 226.215 21.2437H71.1164V20.1157H226.215C245.216 20.1157 260.619 35.5188 260.619 54.5194V128.591C260.619 147.591 245.216 162.994 226.215 162.994H34.4038C15.9026 162.994 0.95383 178.086 1.12958 196.586L1.80263 267.438C1.97603 285.692 16.8225 300.398 35.0769 300.398H227.211C246.338 300.398 261.793 315.999 261.613 335.125L260.934 407.34C260.757 426.214 245.406 441.42 226.532 441.42H124.32V440.292H226.532C244.787 440.292 259.634 425.584 259.806 407.33L260.485 335.115C260.659 316.615 245.711 301.526 227.211 301.526H35.0769C16.2037 301.526 0.853913 286.321 0.674635 267.449L0.00158578 196.597C-0.180111 177.469 15.2754 161.866 34.4038 161.866H226.215C244.593 161.866 259.491 146.968 259.491 128.591Z" fill="#C1E97C" fill-opacity="0.01"/>
<circle cx="126.764" cy="162.995" r="20.4918" fill="#C1E97C" fill-opacity="0.01"/>
<path d="M122.085 169.575V168.293L126.994 164.034C128.167 163.023 129.142 162.049 129.142 160.677C129.142 159.089 128.059 158.186 126.38 158.186C124.756 158.186 123.673 159.269 123.673 161.002V161.236H122.157V160.912C122.157 158.529 123.836 156.833 126.38 156.833C129.106 156.833 130.694 158.331 130.694 160.605C130.694 162.5 129.467 163.691 127.969 164.972L124.179 168.185H130.784V169.575H122.085Z" fill="#2B3E39" fill-opacity="0.01"/>
<circle cx="126.764" cy="300.985" r="20.4918" fill="#C1E97C" fill-opacity="0.01"/>
<path d="M128.889 300.58C130.044 300.797 131.253 301.717 131.253 303.648C131.253 305.796 129.448 307.258 126.705 307.258C123.962 307.258 122.193 305.76 122.193 303.251H123.691C123.709 304.911 125.009 305.904 126.795 305.904C128.438 305.904 129.701 304.984 129.701 303.54C129.701 302.222 128.618 301.374 126.651 301.374H125.568V300.057H126.561C128.438 300.057 129.376 299.118 129.376 297.837C129.376 296.555 128.221 295.761 126.705 295.761C125.117 295.761 123.962 296.718 123.944 298.162H122.446C122.464 295.942 124.197 294.408 126.687 294.408C129.286 294.408 130.928 295.761 130.928 297.746C130.928 299.335 130.098 300.255 128.889 300.58Z" fill="#2B3E39" fill-opacity="0.01"/>
<circle cx="126.764" cy="438.976" r="20.4918" fill="#C1E97C" fill-opacity="0.01"/>
<path d="M121.923 442.054V440.701L128.366 432.507H130.062V440.665H132.102V442.054H130.062V445.14H128.546V442.054H121.923ZM128.546 434.366L123.619 440.665H128.546V434.366Z" fill="#2B3E39" fill-opacity="0.01"/>
<circle cx="126.764" cy="20.4918" r="20.4918" fill="#C1E97C" fill-opacity="0.01"/>
<path d="M126.564 15.5933V14.4382H129.109V27.0717H126.51V18.8961C126.311 18.9502 126.095 18.9682 125.824 18.9682H123.712V16.8205H125.589C126.311 16.8205 126.564 16.3333 126.564 15.5933Z" fill="#2B3E39" fill-opacity="0.01"/>
</svg>
