<svg width="696" height="1222" viewBox="0 0 696 1222" fill="none" xmlns="http://www.w3.org/2000/svg">
<path d="M690.141 342V145C690.141 96.1228 650.518 56.5 601.641 56.5H189.141V53.5H601.641C652.175 53.5 693.141 94.466 693.141 145V342C693.141 392.534 652.175 433.5 601.641 433.5H91.5003C42.2945 433.5 2.5368 473.637 3.00422 522.841L4.79426 711.278C5.25543 759.825 44.7411 798.938 93.2904 798.938H604.29C655.161 798.938 696.265 840.431 695.786 891.299L693.98 1083.36C693.507 1133.56 652.682 1174 602.484 1174H330.641V1171H602.484C651.036 1171 690.523 1131.88 690.98 1083.33L692.786 891.271C693.249 842.07 653.493 801.938 604.29 801.938H93.2904C43.0954 801.938 2.27107 761.499 1.79426 711.307L0.00421754 522.869C-0.479024 471.998 40.6265 430.5 91.5003 430.5H601.641C650.518 430.5 690.141 390.877 690.141 342Z" fill="#C1E97C" fill-opacity="0.01"/>
<circle cx="337.141" cy="433.5" r="54.5" fill="#C1E97C" fill-opacity="0.01"/>
<path d="M324.697 451V447.592L337.753 436.264C340.873 433.576 343.465 430.984 343.465 427.336C343.465 423.112 340.585 420.712 336.121 420.712C331.801 420.712 328.921 423.592 328.921 428.2V428.824H324.889V427.96C324.889 421.624 329.353 417.112 336.121 417.112C343.369 417.112 347.593 421.096 347.593 427.144C347.593 432.184 344.329 435.352 340.345 438.76L330.265 447.304H347.833V451H324.697Z" fill="#2B3E39" fill-opacity="0.01"/>
<circle cx="337.141" cy="800.5" r="54.5" fill="#C1E97C" fill-opacity="0.01"/>
<path d="M342.793 800.528C345.865 801.104 349.081 803.552 349.081 808.688C349.081 814.4 344.281 818.288 336.985 818.288C329.689 818.288 324.985 814.304 324.985 807.632H328.969C329.017 812.048 332.473 814.688 337.225 814.688C341.593 814.688 344.953 812.24 344.953 808.4C344.953 804.896 342.073 802.64 336.841 802.64H333.961V799.136H336.601C341.593 799.136 344.089 796.64 344.089 793.232C344.089 789.824 341.017 787.712 336.985 787.712C332.761 787.712 329.689 790.256 329.641 794.096H325.657C325.705 788.192 330.313 784.112 336.937 784.112C343.849 784.112 348.217 787.712 348.217 792.992C348.217 797.216 346.009 799.664 342.793 800.528Z" fill="#2B3E39" fill-opacity="0.01"/>
<circle cx="337.141" cy="1167.5" r="54.5" fill="#C1E97C" fill-opacity="0.01"/>
<path d="M324.265 1176.79V1173.19L341.401 1151.4H345.913V1173.1H351.337V1176.79H345.913V1185H341.881V1176.79H324.265ZM341.881 1156.34L328.777 1173.1H341.881V1156.34Z" fill="#2B3E39" fill-opacity="0.01"/>
<circle cx="337.141" cy="54.5" r="54.5" fill="#C1E97C" fill-opacity="0.01"/>
<path d="M336.609 41.4719V38.3999H343.377V71.9999H336.465V50.2559C335.937 50.3999 335.361 50.4479 334.641 50.4479H329.025V44.7359H334.017C335.937 44.7359 336.609 43.4399 336.609 41.4719Z" fill="#2B3E39" fill-opacity="0.01"/>
</svg>
