<svg width="696" height="1222" viewBox="0 0 696 1222" fill="none" xmlns="http://www.w3.org/2000/svg">
<path d="M189.141 55H601.641C651.347 55 691.641 95.2944 691.641 145V342C691.641 391.706 651.347 432 601.641 432H91.5001C41.4603 432 1.02886 472.817 1.5042 522.855L3.29427 711.293C3.76327 760.662 43.9181 800.438 93.2902 800.438H604.291C654.327 800.438 694.757 841.25 694.287 891.284L692.48 1083.35C692.015 1132.72 651.859 1172.5 602.484 1172.5H330.641" stroke="#C1E97C" stroke-width="3"/>
<circle cx="337.141" cy="433.5" r="54.5" fill="#C1E97C"/>
<path d="M324.697 451V447.592L337.753 436.264C340.873 433.576 343.465 430.984 343.465 427.336C343.465 423.112 340.585 420.712 336.121 420.712C331.801 420.712 328.921 423.592 328.921 428.2V428.824H324.889V427.96C324.889 421.624 329.353 417.112 336.121 417.112C343.369 417.112 347.593 421.096 347.593 427.144C347.593 432.184 344.329 435.352 340.345 438.76L330.265 447.304H347.833V451H324.697Z" fill="#2B3E39"/>
<circle cx="337.141" cy="800.5" r="54.5" fill="#C1E97C"/>
<path d="M342.793 800.528C345.865 801.104 349.081 803.552 349.081 808.688C349.081 814.4 344.281 818.288 336.985 818.288C329.689 818.288 324.985 814.304 324.985 807.632H328.969C329.017 812.048 332.473 814.688 337.225 814.688C341.593 814.688 344.953 812.24 344.953 808.4C344.953 804.896 342.073 802.64 336.841 802.64H333.961V799.136H336.601C341.593 799.136 344.089 796.64 344.089 793.232C344.089 789.824 341.017 787.712 336.985 787.712C332.761 787.712 329.689 790.256 329.641 794.096H325.657C325.705 788.192 330.313 784.112 336.937 784.112C343.849 784.112 348.217 787.712 348.217 792.992C348.217 797.216 346.009 799.664 342.793 800.528Z" fill="#2B3E39"/>
<circle cx="337.141" cy="1167.5" r="54.5" fill="#C1E97C"/>
<path d="M324.265 1176.79V1173.19L341.401 1151.4H345.913V1173.1H351.337V1176.79H345.913V1185H341.881V1176.79H324.265ZM341.881 1156.34L328.777 1173.1H341.881V1156.34Z" fill="#2B3E39"/>
<circle cx="337.141" cy="54.5" r="54.5" fill="#C1E97C"/>
<path d="M336.609 41.4719V38.3999H343.377V71.9999H336.465V50.2559C335.937 50.3999 335.361 50.4479 334.641 50.4479H329.025V44.7359H334.017C335.937 44.7359 336.609 43.4399 336.609 41.4719Z" fill="#2B3E39"/>
</svg>
